<svg width="197" height="65" viewBox="0 0 197 65" fill="none" xmlns="http://www.w3.org/2000/svg">
<g clip-path="url(#clip0_295_66)">
<path d="M174.209 44.4712V57.921C174.217 58.0204 174.204 58.1204 174.169 58.214C174.135 58.3077 174.081 58.3927 174.01 58.4632C173.94 58.5337 173.855 58.588 173.761 58.6223C173.667 58.6566 173.567 58.67 173.468 58.6617H172.096C171.997 58.669 171.898 58.6548 171.805 58.62C171.713 58.5853 171.628 58.5308 171.559 58.4604C171.489 58.39 171.435 58.3053 171.401 58.2122C171.368 58.1191 171.354 58.0197 171.362 57.921V56.3092C169.694 58.0101 166.893 58.8629 162.961 58.8675C159.783 58.8675 157.515 58.2593 156.157 57.0431C154.799 55.8268 154.113 53.9658 154.099 51.4602V44.4712C154.084 44.3714 154.093 44.2694 154.124 44.1735C154.156 44.0775 154.209 43.9904 154.281 43.9189C154.352 43.8475 154.439 43.7939 154.535 43.7624C154.631 43.7308 154.733 43.7223 154.833 43.7374H156.239C156.339 43.7223 156.441 43.7308 156.537 43.7624C156.633 43.7939 156.72 43.8475 156.791 43.9189C156.863 43.9904 156.917 44.0775 156.948 44.1735C156.98 44.2694 156.988 44.3714 156.973 44.4712V51.4396C156.973 53.2411 157.492 54.494 158.53 55.1981C159.572 55.884 161.273 56.2612 163.585 56.2612C168.756 56.2612 171.342 54.6609 171.342 51.4602V44.4712C171.327 44.3714 171.335 44.2694 171.367 44.1735C171.398 44.0775 171.452 43.9904 171.523 43.9189C171.595 43.8475 171.682 43.7939 171.778 43.7624C171.874 43.7308 171.976 43.7223 172.076 43.7374H173.447C173.548 43.726 173.649 43.7369 173.745 43.7693C173.841 43.8018 173.928 43.8549 174.001 43.925C174.074 43.9952 174.13 44.0805 174.166 44.1749C174.202 44.2693 174.216 44.3705 174.209 44.4712ZM197.021 51.1995C197.021 53.7006 196.218 55.6051 194.613 56.9128C193.008 58.2205 190.423 58.872 186.856 58.8675C183.427 58.8675 180.969 58.2113 179.483 56.899V63.5313C179.491 63.6301 179.478 63.7294 179.444 63.8226C179.41 63.9157 179.356 64.0004 179.287 64.0708C179.217 64.1412 179.133 64.1956 179.04 64.2304C178.947 64.2651 178.848 64.2793 178.749 64.2721H177.336C177.237 64.2793 177.138 64.2651 177.045 64.2304C176.953 64.1956 176.868 64.1412 176.799 64.0708C176.729 64.0004 176.675 63.9157 176.641 63.8226C176.608 63.7294 176.594 63.6301 176.602 63.5313V44.4438C176.594 44.345 176.608 44.2457 176.641 44.1526C176.675 44.0594 176.729 43.9748 176.799 43.9044C176.868 43.834 176.953 43.7795 177.045 43.7448C177.138 43.71 177.237 43.6958 177.336 43.7031H178.749C178.848 43.6958 178.947 43.71 179.04 43.7448C179.133 43.7795 179.217 43.834 179.287 43.9044C179.356 43.9748 179.41 44.0594 179.444 44.1526C179.478 44.2457 179.491 44.345 179.483 44.4438V45.4726C180.969 44.1557 183.427 43.4996 186.856 43.5042C190.4 43.5042 192.974 44.1535 194.579 45.452C196.156 46.7552 196.979 48.6961 197 51.1995H197.021ZM194.14 51.1995C194.14 49.3203 193.557 47.9966 192.391 47.2284C191.232 46.4671 189.38 46.083 186.856 46.083C184.332 46.083 182.487 46.4671 181.321 47.2284C180.155 47.9897 179.572 49.286 179.572 51.1995C179.572 53.1131 180.155 54.3682 181.321 55.1364C182.487 55.9045 184.332 56.2818 186.856 56.2818C189.38 56.2818 191.232 55.8977 192.391 55.1364C193.55 54.3751 194.099 53.0582 194.099 51.1995H194.14Z" fill="url(#paint0_linear_295_66)"/>
<path d="M20.0958 56.1926H19.6226C18.9367 56.1926 18.6212 55.836 18.6212 55.1364V48.9088C18.6277 48.2518 18.4993 47.6005 18.244 46.9952C17.9455 46.3391 17.5161 45.7509 16.982 45.2669C16.225 44.6312 15.3265 44.1867 14.362 43.9706C12.9888 43.6351 11.5779 43.4783 10.1645 43.5042C8.40934 43.4769 6.65779 43.6728 4.95199 44.0872C3.71897 44.3714 2.54161 44.8581 1.46781 45.5275C1.38004 45.5723 1.30383 45.6368 1.24517 45.716C1.18651 45.7951 1.14699 45.8868 1.12971 45.9838C1.11244 46.0808 1.11787 46.1805 1.14559 46.2751C1.17331 46.3697 1.22257 46.4565 1.28949 46.5288L1.82446 47.3244C1.86762 47.4118 1.92889 47.489 2.00421 47.5508C2.07952 47.6126 2.16714 47.6577 2.26124 47.683C2.35534 47.7083 2.45375 47.7133 2.54992 47.6976C2.64608 47.6819 2.7378 47.6459 2.81896 47.5919C5.02192 46.557 7.43653 46.052 9.86961 46.1173C11.3882 46.0285 12.9068 46.2913 14.3071 46.8855C14.721 47.0517 15.0776 47.3347 15.3333 47.7001C15.5891 48.0654 15.733 48.4973 15.7474 48.9431V49.3546C14.5162 49.5702 13.2649 49.6484 12.0164 49.5878H8.5459C7.41386 49.5744 6.28213 49.634 5.15775 49.7661C4.25396 49.874 3.36562 50.0857 2.51032 50.3971C1.75348 50.6419 1.09491 51.1226 0.63106 51.7688C0.194357 52.4563 -0.0254944 53.2592 6.74838e-05 54.0733C-0.0517706 54.8063 0.107344 55.5387 0.458598 56.1841C0.809853 56.8295 1.33856 57.3608 1.98221 57.7152C3.30592 58.4628 5.3635 58.8332 8.15496 58.8332C11.9775 58.8332 14.5038 58.2273 15.7337 57.0157C15.9852 58.113 16.9248 58.6617 18.5526 58.6617H20.0958C20.1946 58.669 20.2939 58.6548 20.3867 58.62C20.4795 58.5853 20.5637 58.5308 20.6334 58.4604C20.7031 58.39 20.7568 58.3054 20.7907 58.2122C20.8246 58.1191 20.8379 58.0198 20.8297 57.921V56.9265C20.8448 56.8267 20.8362 56.7247 20.8047 56.6287C20.7731 56.5328 20.7195 56.4456 20.6481 56.3742C20.5767 56.3028 20.4895 56.2492 20.3936 56.2176C20.2977 56.1861 20.1957 56.1775 20.0958 56.1926ZM15.7749 54.43C14.9994 55.1529 14.0373 55.6447 12.9971 55.8497C11.4185 56.176 9.80769 56.321 8.19611 56.2818C6.84461 56.3388 5.49219 56.1932 4.18382 55.8497C3.81261 55.7218 3.49057 55.4812 3.26261 55.1616C3.03464 54.8419 2.91211 54.4591 2.91211 54.0665C2.91211 53.6738 3.03464 53.291 3.26261 52.9713C3.49057 52.6517 3.81261 52.4111 4.18382 52.2832C5.62127 51.9458 7.09823 51.8073 8.57334 51.8717H12.0438C13.3026 51.9286 14.5624 51.7827 15.7749 51.4396V54.43ZM41.2546 45.3492C42.6264 46.5631 43.3122 48.4287 43.3122 50.9321V57.921C43.3204 58.0198 43.3071 58.1191 43.2732 58.2122C43.2393 58.3054 43.1857 58.39 43.1159 58.4604C43.0462 58.5308 42.962 58.5853 42.8692 58.62C42.7764 58.6548 42.6772 58.669 42.5783 58.6617H41.1518C41.0529 58.669 40.9537 58.6548 40.8609 58.62C40.7681 58.5853 40.6839 58.5308 40.6142 58.4604C40.5444 58.39 40.4908 58.3054 40.4569 58.2122C40.423 58.1191 40.4097 58.0198 40.4179 57.921V50.9321C40.4179 49.1283 39.9035 47.88 38.861 47.1736C37.8185 46.4671 36.1175 46.1173 33.813 46.1173C28.6416 46.1173 26.0559 47.7177 26.0559 50.9184V57.921C26.0641 58.0198 26.0508 58.1191 26.017 58.2122C25.9831 58.3054 25.9294 58.39 25.8597 58.4604C25.7899 58.5308 25.7057 58.5853 25.6129 58.62C25.5201 58.6548 25.4209 58.669 25.3221 58.6617H23.9092C23.8104 58.669 23.7111 58.6548 23.6183 58.62C23.5255 58.5853 23.4414 58.5308 23.3716 58.4604C23.3019 58.39 23.2482 58.3054 23.2143 58.2122C23.1804 58.1191 23.1671 58.0198 23.1753 57.921V44.4713C23.1602 44.3714 23.1688 44.2694 23.2003 44.1735C23.2319 44.0776 23.2855 43.9904 23.3569 43.919C23.4283 43.8476 23.5155 43.7939 23.6114 43.7624C23.7074 43.7308 23.8094 43.7223 23.9092 43.7374H25.3221C25.4224 43.7211 25.5252 43.7287 25.6221 43.7597C25.7189 43.7907 25.807 43.8442 25.8793 43.9157C25.9515 43.9873 26.0058 44.0749 26.0377 44.1715C26.0696 44.268 26.0782 44.3707 26.0628 44.4713V46.083C27.7317 44.3821 30.5323 43.5316 34.4646 43.5316C37.6333 43.5316 39.8966 44.1375 41.2546 45.3492ZM48.6962 51.1653C48.6962 53.0308 49.2975 54.3477 50.5 55.1158C51.7072 55.8909 53.559 56.2818 56.0692 56.2818C58.6984 56.2818 60.7834 55.8245 62.3243 54.9101C62.5086 54.7922 62.7228 54.7295 62.9416 54.7295C63.1604 54.7295 63.3746 54.7922 63.5589 54.9101L64.4436 55.4656C64.9306 55.7605 64.9717 56.1035 64.5602 56.4944C62.873 58.0582 60.0427 58.8423 56.0692 58.8469C49.2106 58.8469 45.7813 56.2795 45.7813 51.1447C45.7813 46.0099 49.2106 43.4562 56.0692 43.4836C60.0472 43.4836 62.8776 44.2655 64.5602 45.8293C64.9717 46.2202 64.9306 46.5631 64.4436 46.8581L63.5589 47.4136C63.3746 47.5315 63.1604 47.5942 62.9416 47.5942C62.7228 47.5942 62.5086 47.5315 62.3243 47.4136C60.7834 46.4991 58.6984 46.0419 56.0692 46.0419C53.559 46.0419 51.7072 46.426 50.5 47.1873C49.2929 47.9486 48.6962 49.3066 48.6962 51.1653ZM107.989 45.4726C106.357 44.1558 103.775 43.4996 100.246 43.5042C93.4738 43.5042 90.088 46.0579 90.088 51.1653C90.088 56.2726 93.4738 58.8401 100.246 58.8675C103.771 58.8675 106.343 58.2113 107.962 56.8991C109.573 55.5822 110.396 53.6755 110.41 51.1653C110.424 48.655 109.601 46.7826 107.968 45.4726H107.989ZM105.787 55.1364C104.621 55.9 102.774 56.2818 100.246 56.2818C97.717 56.2818 95.8721 55.9 94.7107 55.1364C93.5447 54.3682 92.9617 53.0788 92.9617 51.1653C92.9617 49.2517 93.5447 47.9966 94.7107 47.2284C95.8766 46.4603 97.7216 46.083 100.246 46.083C102.77 46.083 104.621 46.4671 105.787 47.2284C106.953 47.9897 107.536 49.286 107.536 51.1653C107.536 53.0445 106.933 54.3682 105.767 55.1364H105.787ZM130.211 46.2202L129.594 46.7757C129.4 46.9494 129.157 47.0575 128.898 47.0846C128.639 47.1117 128.379 47.0564 128.153 46.9266C126.692 46.3313 125.121 46.0508 123.544 46.1036C118.574 46.1036 116.087 47.704 116.082 50.9046V57.921C116.09 58.0198 116.077 58.1191 116.043 58.2122C116.009 58.3054 115.956 58.39 115.886 58.4604C115.816 58.5308 115.732 58.5853 115.639 58.62C115.546 58.6548 115.447 58.669 115.348 58.6617H113.935C113.834 58.6744 113.731 58.6642 113.634 58.6319C113.537 58.5995 113.448 58.5459 113.374 58.4749C113.301 58.4038 113.244 58.3172 113.208 58.2214C113.172 58.1256 113.158 58.0229 113.167 57.921V44.4713C113.152 44.3714 113.161 44.2694 113.192 44.1735C113.224 44.0776 113.277 43.9904 113.349 43.919C113.42 43.8476 113.507 43.7939 113.603 43.7624C113.699 43.7308 113.801 43.7223 113.901 43.7374H115.314C115.414 43.7223 115.516 43.7308 115.612 43.7624C115.708 43.7939 115.795 43.8476 115.866 43.919C115.938 43.9904 115.991 44.0776 116.023 44.1735C116.054 44.2694 116.063 44.3714 116.048 44.4713V45.9527C117.634 44.3295 120.337 43.5179 124.155 43.5179C126.2 43.4513 128.228 43.9244 130.033 44.8896C130.709 45.3011 130.762 45.7492 130.19 46.2339L130.211 46.2202ZM151.685 56.8236V57.9073C151.693 58.006 151.68 58.1054 151.646 58.1985C151.612 58.2916 151.559 58.3763 151.489 58.4467C151.419 58.5171 151.335 58.5716 151.242 58.6063C151.149 58.6411 151.05 58.6553 150.951 58.648H133.332C133.233 58.6553 133.133 58.6411 133.041 58.6063C132.948 58.5716 132.864 58.5171 132.794 58.4467C132.724 58.3763 132.671 58.2916 132.637 58.1985C132.603 58.1054 132.589 58.006 132.598 57.9073V56.659C132.589 56.4834 132.628 56.3086 132.711 56.1538C132.795 55.999 132.919 55.8701 133.071 55.7811L147.261 46.2888H133.332C133.232 46.3039 133.13 46.2953 133.034 46.2638C132.938 46.2322 132.851 46.1786 132.779 46.1072C132.708 46.0358 132.654 45.9486 132.623 45.8527C132.591 45.7568 132.583 45.6548 132.598 45.5549V44.4713C132.583 44.3714 132.591 44.2694 132.623 44.1735C132.654 44.0776 132.708 43.9904 132.779 43.919C132.851 43.8476 132.938 43.7939 133.034 43.7624C133.13 43.7308 133.232 43.7223 133.332 43.7374H150.752C150.852 43.7223 150.954 43.7308 151.05 43.7624C151.146 43.7939 151.233 43.8476 151.305 43.919C151.376 43.9904 151.43 44.0776 151.461 44.1735C151.493 44.2694 151.501 44.3714 151.486 44.4713V45.7332C151.494 45.9089 151.455 46.0835 151.373 46.239C151.291 46.3946 151.169 46.5254 151.02 46.618L136.802 56.1035H150.931C151.029 56.0963 151.128 56.1104 151.22 56.1447C151.312 56.1791 151.396 56.2329 151.466 56.3025C151.535 56.3722 151.589 56.456 151.623 56.5483C151.658 56.6405 151.672 56.7391 151.665 56.8373L151.685 56.8236ZM87.9344 45.0954V57.7633C87.9538 57.895 87.9422 58.0295 87.9006 58.1561C87.8589 58.2826 87.7884 58.3977 87.6945 58.4922C87.6007 58.5867 87.4861 58.6581 87.3599 58.7006C87.2336 58.7431 87.0992 58.7556 86.9673 58.7372H85.9934C85.8615 58.7556 85.7271 58.7431 85.6008 58.7006C85.4746 58.6581 85.36 58.5867 85.2661 58.4922C85.1723 58.3977 85.1017 58.2826 85.0601 58.1561C85.0185 58.0295 85.0069 57.895 85.0263 57.7633V52.8113H70.8153V57.7633C70.8349 57.8957 70.8233 58.0309 70.7813 58.158C70.7393 58.2852 70.6681 58.4007 70.5735 58.4954C70.4788 58.59 70.3632 58.6612 70.2361 58.7032C70.109 58.7452 69.9738 58.7568 69.8413 58.7372H68.8743C68.7418 58.7568 68.6066 58.7452 68.4795 58.7032C68.3524 58.6612 68.2368 58.59 68.1422 58.4954C68.0475 58.4007 67.9763 58.2852 67.9343 58.158C67.8923 58.0309 67.8807 57.8957 67.9004 57.7633V45.1091C67.8821 44.9778 67.8946 44.8441 67.9367 44.7185C67.9789 44.5929 68.0496 44.4787 68.1433 44.385C68.237 44.2913 68.3512 44.2206 68.4768 44.1784C68.6025 44.1363 68.7362 44.1238 68.8674 44.142H69.8345C69.9663 44.1226 70.1008 44.1342 70.2273 44.1758C70.3538 44.2175 70.4689 44.288 70.5634 44.3819C70.658 44.4757 70.7293 44.5903 70.7718 44.7165C70.8144 44.8428 70.8269 44.9772 70.8084 45.1091V50.1228H84.9989V45.1091C84.9807 44.9778 84.9931 44.8441 85.0353 44.7185C85.0774 44.5929 85.1481 44.4787 85.2418 44.385C85.3355 44.2913 85.4497 44.2206 85.5753 44.1784C85.701 44.1363 85.8347 44.1238 85.9659 44.142H86.9399C87.0717 44.1226 87.2061 44.1342 87.3327 44.1758C87.4592 44.2175 87.5743 44.288 87.6688 44.3819C87.7633 44.4757 87.8347 44.5903 87.8772 44.7165C87.9197 44.8428 87.9323 44.9772 87.9138 45.1091L87.9344 45.0954Z" fill="url(#paint1_linear_295_66)"/>
<path d="M110.664 12.7502H112.2C112.2 6.27564 108.928 1.71466 99.0246 1.71466L98.9011 1.76267V22.119" stroke="url(#paint2_linear_295_66)" stroke-width="3.42931" stroke-linecap="round" stroke-linejoin="round"/>
<path d="M110.705 19.4442C110.403 22.4175 109.008 25.173 106.791 27.1766C104.573 29.1803 101.691 30.2896 98.7025 30.2896C95.7138 30.2896 92.8316 29.1803 90.6141 27.1766C88.3966 25.173 87.0018 22.4175 86.6999 19.4442H84.8M112.235 19.4442H110.739" stroke="url(#paint3_linear_295_66)" stroke-width="3.42931" stroke-miterlimit="10" stroke-linecap="round"/>
</g>
<defs>
<linearGradient id="paint0_linear_295_66" x1="154.065" y1="53.8881" x2="197" y2="53.8881" gradientUnits="userSpaceOnUse">
<stop stop-color="#F78F3D"/>
<stop offset="1" stop-color="#F15A29"/>
</linearGradient>
<linearGradient id="paint1_linear_295_66" x1="6.74844e-05" y1="51.1858" x2="151.665" y2="51.1858" gradientUnits="userSpaceOnUse">
<stop stop-color="#92278F"/>
<stop offset="1" stop-color="#662D91"/>
</linearGradient>
<linearGradient id="paint2_linear_295_66" x1="97.1865" y1="11.9134" x2="113.915" y2="11.9134" gradientUnits="userSpaceOnUse">
<stop stop-color="#92278F"/>
<stop offset="1" stop-color="#662D91"/>
</linearGradient>
<linearGradient id="paint3_linear_295_66" x1="83.0854" y1="24.8693" x2="113.915" y2="24.8693" gradientUnits="userSpaceOnUse">
<stop stop-color="#92278F"/>
<stop offset="1" stop-color="#662D91"/>
</linearGradient>
<clipPath id="clip0_295_66">
<rect width="197" height="64.2721" fill="white"/>
</clipPath>
</defs>
</svg>
